<svg xmlns="http://www.w3.org/2000/svg" viewBox="0 0 1024 1024" width="1024" height="1024">
  <path fill="white" fill-rule="evenodd" d="M 513,790 L 497,789 L 491,791 L 487,797 L 488,806 L 491,810 L 500,815 L 502,815 L 505,818 L 504,825 L 500,828 L 495,827 L 491,824 L 490,821 L 488,820 L 488,818 L 485,818 L 484,830 L 491,830 L 496,832 L 500,832 L 501,831 L 506,831 L 511,827 L 513,823 L 513,813 L 508,807 L 497,801 L 496,796 L 499,793 L 505,794 L 507,796 L 509,802 L 512,802 Z M 482,787 L 477,788 L 477,792 L 479,797 L 476,799 L 476,802 L 481,800 L 484,795 L 484,789 Z M 565,784 L 561,784 L 557,786 L 547,788 L 541,793 L 538,799 L 537,808 L 539,817 L 543,823 L 545,823 L 551,827 L 563,828 L 572,824 L 573,821 L 573,813 L 569,813 L 569,816 L 567,819 L 564,821 L 558,822 L 550,816 L 547,808 L 547,799 L 552,791 L 558,790 L 565,797 L 568,796 Z M 439,780 L 442,784 L 442,795 L 440,801 L 438,816 L 433,821 L 445,824 L 450,824 L 450,822 L 447,820 L 447,814 L 449,806 L 451,806 L 455,810 L 460,826 L 473,827 L 469,823 L 463,808 L 464,805 L 468,804 L 471,800 L 471,791 L 464,785 Z M 453,787 L 456,787 L 462,793 L 462,799 L 457,803 L 454,803 L 450,801 L 450,793 L 451,789 Z M 604,778 L 598,777 L 588,779 L 581,785 L 578,790 L 577,794 L 578,808 L 581,814 L 588,819 L 591,820 L 606,819 L 609,816 L 611,816 L 617,807 L 618,796 L 616,789 L 609,781 Z M 593,781 L 600,782 L 603,785 L 607,792 L 609,800 L 608,810 L 605,814 L 600,817 L 592,814 L 588,808 L 587,804 L 587,787 Z M 665,756 L 648,762 L 651,766 L 648,778 L 648,783 L 646,785 L 644,785 L 633,771 L 634,767 L 628,768 L 619,772 L 622,774 L 624,779 L 628,799 L 628,804 L 625,807 L 624,810 L 638,807 L 633,802 L 630,790 L 631,786 L 633,786 L 645,802 L 649,802 L 653,775 L 656,776 L 660,791 L 660,795 L 658,797 L 656,797 L 656,799 L 668,797 L 676,793 L 673,793 L 670,791 L 666,781 L 662,766 L 662,761 Z M 363,756 L 362,767 L 364,767 L 369,763 L 373,763 L 375,765 L 369,790 L 367,794 L 364,797 L 362,797 L 363,799 L 378,803 L 378,799 L 376,798 L 376,795 L 379,787 L 381,776 L 384,769 L 389,770 L 393,776 L 397,778 L 397,781 L 393,789 L 393,801 L 395,807 L 399,811 L 406,815 L 419,816 L 424,814 L 429,809 L 432,803 L 433,795 L 431,786 L 426,778 L 424,778 L 417,774 L 407,774 L 400,778 L 397,777 L 397,767 L 368,758 L 366,756 Z M 416,777 L 421,781 L 423,785 L 424,796 L 422,803 L 416,812 L 409,812 L 404,808 L 402,804 L 402,792 L 405,784 L 408,780 L 413,777 Z M 342,749 L 342,753 L 334,766 L 334,768 L 325,782 L 321,786 L 330,789 L 334,789 L 332,785 L 332,781 L 334,779 L 341,779 L 346,782 L 346,788 L 344,790 L 342,790 L 342,792 L 352,794 L 359,797 L 355,790 L 352,753 L 349,750 Z M 340,765 L 345,765 L 344,775 L 340,775 L 336,773 L 336,771 Z M 703,749 L 691,748 L 674,753 L 674,755 L 677,757 L 679,761 L 683,779 L 684,788 L 681,792 L 697,789 L 700,787 L 696,786 L 692,781 L 691,773 L 693,771 L 702,769 L 707,764 L 708,755 L 706,751 Z M 688,752 L 694,753 L 698,758 L 697,763 L 692,768 L 689,767 L 687,760 Z M 254,738 L 257,741 L 258,744 L 258,768 L 256,775 L 253,777 L 253,779 L 271,779 L 267,775 L 267,761 L 269,761 L 274,765 L 278,779 L 286,781 L 297,781 L 309,784 L 317,784 L 317,782 L 321,777 L 321,775 L 317,774 L 316,777 L 313,779 L 304,778 L 305,765 L 310,766 L 312,770 L 314,770 L 314,764 L 316,759 L 316,756 L 311,760 L 305,759 L 306,749 L 309,746 L 312,746 L 319,751 L 319,754 L 323,755 L 323,744 L 295,740 L 295,742 L 297,744 L 297,754 L 295,772 L 293,778 L 288,777 L 288,775 L 280,761 L 281,758 L 287,752 L 287,747 L 283,741 L 275,738 L 259,737 Z M 268,741 L 272,741 L 277,746 L 277,752 L 273,756 L 267,755 Z M 503,646 L 500,649 L 499,652 L 500,657 L 502,660 L 504,660 L 513,666 L 512,672 L 507,672 L 501,666 L 499,666 L 499,675 L 507,676 L 516,675 L 519,671 L 519,662 L 518,660 L 507,654 L 507,650 L 509,648 L 512,648 L 519,655 L 518,645 Z M 608,617 L 605,618 L 605,622 L 603,625 L 598,628 L 596,628 L 588,622 L 589,626 L 593,629 L 592,632 L 582,638 L 577,637 L 573,629 L 576,640 L 565,646 L 560,645 L 557,637 L 555,636 L 555,641 L 559,645 L 558,648 L 548,651 L 541,650 L 539,639 L 538,652 L 531,652 L 529,654 L 552,652 L 554,650 L 558,650 L 561,648 L 567,647 L 584,639 L 587,636 L 598,630 L 608,621 Z M 347,498 L 357,525 L 362,525 L 363,517 L 366,511 L 369,512 L 369,515 L 373,525 L 376,525 L 383,503 L 386,500 L 386,498 Z M 376,500 L 380,501 L 377,513 L 374,512 L 373,509 L 374,503 Z M 358,499 L 362,499 L 365,502 L 362,513 L 359,512 L 356,505 L 356,501 Z M 381,458 L 379,459 L 378,465 L 376,468 L 372,482 L 371,493 L 376,492 L 377,487 L 383,487 L 386,485 L 374,484 L 376,473 L 378,469 L 381,469 L 388,472 L 388,470 L 380,467 L 379,464 Z M 532,370 L 532,372 L 536,372 L 540,374 L 538,380 L 539,383 L 540,377 L 542,375 L 552,376 L 560,379 L 560,381 L 556,385 L 555,388 L 556,390 L 558,385 L 561,383 L 562,380 L 572,383 L 575,388 L 575,390 L 572,394 L 572,398 L 573,394 L 578,389 L 583,389 L 586,392 L 593,395 L 594,398 L 597,399 L 599,398 L 593,395 L 593,392 L 589,392 L 586,389 L 576,384 L 575,380 L 569,381 L 555,375 L 545,374 L 538,371 Z M 501,344 L 499,349 L 502,352 L 502,371 L 499,373 L 499,375 L 510,374 L 506,372 L 506,356 L 508,356 L 513,361 L 520,372 L 520,374 L 526,375 L 526,353 L 528,347 L 520,347 L 520,349 L 523,351 L 522,362 L 519,361 L 518,358 L 510,348 L 501,346 Z M 35,330 L 33,341 L 35,347 L 38,351 L 41,351 L 41,347 L 46,340 L 53,341 L 54,347 L 49,352 L 39,357 L 36,365 L 37,379 L 39,381 L 39,383 L 47,390 L 46,404 L 49,413 L 55,418 L 63,419 L 66,418 L 69,415 L 71,408 L 80,408 L 90,416 L 94,426 L 95,440 L 90,455 L 87,460 L 85,461 L 84,464 L 70,477 L 55,486 L 44,495 L 34,506 L 33,510 L 31,511 L 28,516 L 23,529 L 22,547 L 24,557 L 28,567 L 42,583 L 53,590 L 66,594 L 86,595 L 100,592 L 107,588 L 110,589 L 111,599 L 113,601 L 115,611 L 119,619 L 126,647 L 128,650 L 132,664 L 132,670 L 130,675 L 111,695 L 110,702 L 117,721 L 117,725 L 120,734 L 117,765 L 121,769 L 126,778 L 125,782 L 119,782 L 109,785 L 98,791 L 95,794 L 94,800 L 99,810 L 106,817 L 112,836 L 118,841 L 129,844 L 140,844 L 150,841 L 153,837 L 153,832 L 155,825 L 161,825 L 192,835 L 213,840 L 239,841 L 254,837 L 260,832 L 262,829 L 263,818 L 261,812 L 252,800 L 253,797 L 257,796 L 274,796 L 292,798 L 317,803 L 356,815 L 362,818 L 368,819 L 373,822 L 379,823 L 385,826 L 410,834 L 463,847 L 469,847 L 484,850 L 528,851 L 566,847 L 611,836 L 649,822 L 652,822 L 664,817 L 676,814 L 681,811 L 705,804 L 731,799 L 750,797 L 768,799 L 767,803 L 764,806 L 755,822 L 755,830 L 763,839 L 771,842 L 792,844 L 813,841 L 838,834 L 849,829 L 862,825 L 871,826 L 869,832 L 867,833 L 867,838 L 870,842 L 878,845 L 892,845 L 899,843 L 906,838 L 911,821 L 917,815 L 923,806 L 923,800 L 922,797 L 916,791 L 909,787 L 898,784 L 888,783 L 889,778 L 896,770 L 899,763 L 899,758 L 896,752 L 895,739 L 897,729 L 907,709 L 907,697 L 904,691 L 888,678 L 884,672 L 883,664 L 886,661 L 886,658 L 895,642 L 896,635 L 900,629 L 906,612 L 906,609 L 908,606 L 910,592 L 912,590 L 918,592 L 919,594 L 932,599 L 943,600 L 963,597 L 980,589 L 989,581 L 997,570 L 1003,553 L 1003,536 L 999,523 L 987,505 L 980,498 L 977,497 L 970,490 L 967,489 L 958,482 L 953,480 L 942,469 L 941,466 L 937,462 L 936,458 L 930,448 L 929,442 L 930,429 L 933,421 L 941,412 L 947,409 L 952,409 L 956,411 L 956,414 L 953,417 L 953,422 L 954,424 L 958,426 L 964,426 L 970,424 L 978,418 L 982,408 L 981,394 L 988,388 L 990,379 L 988,370 L 983,365 L 982,362 L 975,356 L 974,350 L 979,345 L 982,346 L 984,350 L 984,354 L 991,352 L 994,345 L 992,334 L 985,327 L 975,325 L 974,326 L 969,326 L 967,328 L 963,329 L 956,335 L 953,342 L 953,351 L 956,360 L 961,367 L 960,371 L 958,371 L 952,367 L 948,367 L 939,370 L 932,375 L 927,385 L 925,398 L 923,401 L 916,430 L 916,445 L 917,452 L 923,468 L 931,479 L 937,483 L 951,498 L 966,509 L 979,522 L 979,524 L 984,533 L 986,542 L 985,552 L 981,560 L 971,571 L 959,578 L 943,579 L 928,574 L 921,569 L 907,555 L 895,538 L 890,529 L 890,527 L 885,520 L 879,504 L 877,491 L 877,479 L 882,460 L 885,460 L 889,463 L 892,461 L 888,456 L 888,454 L 894,438 L 901,439 L 908,438 L 908,436 L 903,432 L 900,423 L 902,417 L 906,412 L 910,403 L 911,380 L 913,380 L 915,383 L 920,382 L 918,377 L 918,365 L 925,348 L 924,330 L 920,322 L 921,318 L 925,317 L 931,312 L 931,305 L 927,299 L 924,305 L 921,305 L 919,303 L 922,293 L 922,286 L 919,279 L 910,272 L 915,264 L 915,257 L 911,248 L 909,249 L 909,252 L 905,256 L 897,256 L 885,250 L 877,244 L 858,242 L 856,241 L 853,236 L 848,235 L 844,232 L 840,233 L 837,237 L 831,240 L 828,240 L 823,243 L 815,243 L 810,245 L 807,249 L 795,255 L 785,269 L 781,270 L 776,274 L 767,278 L 766,283 L 761,284 L 744,293 L 742,293 L 734,301 L 734,310 L 738,317 L 738,326 L 743,333 L 751,337 L 754,337 L 762,333 L 765,334 L 767,338 L 766,342 L 749,342 L 749,344 L 747,346 L 747,351 L 752,356 L 755,371 L 759,373 L 763,373 L 769,370 L 776,370 L 779,367 L 782,368 L 782,373 L 776,380 L 764,383 L 760,386 L 754,388 L 748,393 L 748,396 L 756,397 L 756,401 L 752,408 L 748,412 L 744,412 L 734,406 L 720,392 L 719,389 L 704,368 L 697,346 L 691,337 L 682,327 L 674,322 L 666,321 L 657,318 L 646,307 L 643,299 L 643,288 L 645,286 L 644,282 L 638,282 L 636,283 L 633,288 L 630,289 L 624,280 L 619,266 L 618,257 L 622,249 L 629,245 L 637,245 L 642,249 L 646,250 L 648,244 L 644,239 L 645,233 L 651,233 L 656,236 L 660,241 L 660,249 L 653,256 L 653,260 L 655,263 L 662,264 L 664,266 L 664,268 L 669,272 L 680,272 L 682,271 L 689,263 L 693,252 L 693,240 L 688,228 L 679,219 L 667,213 L 663,212 L 643,212 L 635,214 L 620,221 L 604,238 L 603,242 L 600,243 L 593,236 L 585,232 L 575,230 L 575,226 L 585,221 L 596,217 L 607,216 L 627,210 L 645,202 L 663,189 L 672,180 L 673,177 L 679,170 L 683,159 L 685,144 L 685,136 L 681,125 L 681,120 L 685,117 L 686,113 L 682,110 L 678,109 L 678,107 L 676,105 L 666,104 L 667,96 L 670,91 L 673,89 L 673,85 L 671,84 L 663,84 L 661,86 L 658,85 L 659,81 L 663,76 L 669,72 L 679,68 L 686,68 L 694,72 L 701,81 L 700,89 L 695,90 L 692,86 L 685,86 L 681,95 L 682,101 L 687,109 L 690,110 L 694,114 L 697,115 L 715,115 L 724,111 L 730,106 L 735,98 L 738,97 L 750,98 L 757,95 L 760,92 L 763,85 L 763,74 L 762,71 L 759,68 L 755,66 L 745,66 L 742,74 L 738,74 L 732,69 L 726,58 L 712,50 L 698,47 L 682,48 L 663,55 L 647,71 L 642,81 L 639,102 L 636,101 L 630,94 L 624,91 L 620,92 L 614,97 L 608,97 L 608,102 L 612,108 L 612,112 L 608,117 L 608,122 L 611,129 L 608,133 L 609,139 L 613,139 L 618,136 L 622,136 L 626,138 L 631,143 L 636,153 L 637,169 L 634,177 L 629,184 L 618,193 L 611,196 L 608,199 L 583,209 L 572,215 L 568,214 L 569,210 L 575,206 L 577,203 L 577,199 L 573,195 L 573,190 L 576,184 L 581,180 L 584,175 L 583,164 L 586,162 L 594,152 L 595,143 L 578,148 L 576,151 L 570,151 L 564,156 L 563,159 L 560,158 L 558,146 L 554,143 L 545,154 L 542,163 L 539,162 L 538,155 L 529,153 L 527,151 L 524,142 L 517,135 L 513,136 L 509,140 L 504,152 L 496,154 L 493,157 L 492,161 L 488,160 L 486,156 L 486,153 L 480,143 L 477,142 L 475,143 L 473,147 L 472,156 L 468,157 L 466,161 L 463,160 L 462,151 L 454,149 L 442,142 L 438,142 L 438,149 L 448,162 L 448,166 L 445,169 L 445,172 L 449,178 L 451,184 L 456,190 L 456,195 L 453,199 L 453,202 L 462,211 L 461,215 L 459,215 L 453,211 L 442,208 L 409,189 L 399,179 L 393,168 L 392,164 L 393,153 L 401,139 L 410,134 L 421,135 L 421,130 L 416,125 L 416,122 L 419,120 L 418,104 L 421,99 L 420,95 L 413,94 L 407,90 L 404,90 L 393,100 L 390,99 L 387,80 L 383,70 L 378,63 L 366,52 L 360,49 L 346,45 L 334,44 L 318,47 L 310,51 L 301,58 L 296,67 L 291,71 L 289,71 L 287,69 L 287,62 L 285,61 L 275,61 L 269,67 L 268,70 L 268,80 L 271,86 L 275,90 L 281,93 L 295,94 L 297,101 L 303,108 L 307,110 L 318,113 L 334,112 L 340,109 L 343,110 L 343,112 L 350,117 L 351,125 L 347,132 L 345,139 L 345,150 L 347,158 L 354,168 L 354,170 L 357,173 L 357,175 L 360,177 L 362,181 L 373,190 L 376,191 L 383,197 L 390,200 L 393,203 L 400,205 L 410,210 L 416,211 L 449,222 L 455,225 L 454,228 L 439,233 L 426,244 L 423,243 L 420,233 L 412,223 L 400,215 L 389,211 L 368,210 L 354,214 L 349,219 L 345,221 L 338,231 L 336,238 L 336,252 L 340,263 L 349,268 L 361,268 L 366,265 L 368,260 L 375,259 L 377,254 L 373,253 L 369,249 L 367,239 L 376,229 L 382,229 L 384,231 L 384,233 L 380,239 L 381,245 L 386,245 L 390,242 L 398,242 L 406,249 L 409,257 L 407,270 L 401,281 L 396,286 L 394,290 L 390,290 L 389,282 L 384,277 L 380,277 L 379,279 L 380,296 L 378,304 L 376,307 L 365,318 L 356,318 L 343,327 L 339,334 L 330,342 L 324,364 L 322,365 L 322,367 L 317,373 L 310,386 L 288,406 L 281,410 L 277,410 L 275,408 L 275,406 L 278,403 L 278,399 L 274,391 L 266,383 L 256,377 L 246,367 L 247,364 L 249,364 L 259,370 L 264,370 L 270,367 L 273,362 L 273,356 L 276,354 L 278,350 L 278,345 L 277,342 L 275,341 L 265,342 L 260,339 L 260,333 L 270,335 L 279,335 L 288,327 L 290,322 L 290,317 L 289,316 L 290,311 L 295,308 L 294,299 L 285,290 L 277,285 L 263,280 L 259,273 L 246,266 L 240,256 L 237,253 L 231,252 L 226,245 L 219,241 L 212,239 L 197,237 L 191,232 L 190,227 L 185,227 L 180,229 L 179,231 L 175,233 L 174,236 L 161,237 L 153,239 L 133,250 L 127,249 L 123,245 L 121,240 L 119,240 L 119,245 L 117,247 L 115,247 L 113,251 L 113,261 L 115,263 L 115,265 L 105,275 L 103,280 L 102,293 L 97,294 L 95,301 L 98,309 L 105,312 L 105,314 L 102,318 L 100,326 L 100,338 L 104,345 L 104,362 L 111,363 L 112,391 L 117,400 L 117,402 L 128,413 L 129,421 L 128,423 L 126,424 L 124,429 L 119,428 L 124,433 L 136,435 L 136,446 L 138,453 L 141,456 L 142,454 L 145,455 L 147,463 L 147,493 L 146,501 L 138,521 L 130,532 L 122,539 L 113,551 L 112,554 L 106,561 L 96,568 L 80,574 L 65,573 L 51,565 L 48,562 L 41,550 L 39,544 L 39,534 L 43,522 L 47,517 L 47,515 L 59,503 L 62,502 L 82,487 L 98,470 L 104,458 L 108,443 L 107,414 L 100,390 L 98,377 L 95,370 L 92,367 L 80,362 L 73,362 L 66,367 L 63,366 L 63,363 L 71,356 L 74,351 L 75,339 L 72,330 L 65,323 L 58,320 L 44,321 Z M 121,796 L 120,799 L 113,802 L 109,802 L 110,799 L 118,795 Z M 854,785 L 862,786 L 861,790 L 853,788 Z M 872,764 L 872,766 L 870,767 L 872,770 L 871,775 L 869,775 L 866,782 L 864,784 L 858,783 L 859,779 L 865,776 L 865,772 L 869,763 Z M 134,760 L 138,761 L 137,769 L 134,768 L 133,764 Z M 722,756 L 725,757 L 728,764 L 727,767 L 725,768 L 719,767 L 720,758 Z M 207,755 L 206,760 L 204,761 L 199,760 L 199,758 L 204,754 Z M 796,751 L 800,751 L 805,756 L 807,762 L 809,762 L 809,759 L 811,757 L 814,758 L 815,761 L 812,769 L 810,771 L 812,772 L 811,775 L 807,774 L 807,771 L 805,767 L 794,756 L 794,753 Z M 134,749 L 138,749 L 138,752 L 141,753 L 140,756 L 133,753 Z M 876,739 L 879,740 L 878,754 L 874,753 L 873,745 L 875,743 Z M 211,768 L 212,760 L 214,759 L 212,749 L 215,749 L 216,745 L 215,740 L 217,736 L 227,732 L 228,729 L 261,724 L 291,725 L 326,731 L 341,736 L 359,740 L 377,747 L 390,750 L 393,752 L 396,752 L 433,765 L 459,771 L 497,777 L 528,777 L 560,773 L 569,770 L 574,770 L 612,759 L 618,756 L 689,734 L 694,734 L 702,731 L 730,727 L 736,725 L 765,725 L 786,729 L 788,731 L 788,734 L 800,737 L 804,740 L 805,743 L 814,746 L 814,754 L 810,753 L 810,749 L 804,749 L 800,747 L 792,747 L 788,749 L 785,754 L 785,760 L 788,765 L 797,772 L 797,780 L 796,781 L 788,781 L 782,772 L 777,771 L 776,762 L 760,751 L 761,747 L 766,745 L 773,752 L 776,753 L 776,743 L 771,742 L 759,742 L 757,743 L 753,748 L 752,752 L 754,759 L 766,766 L 769,769 L 769,774 L 766,777 L 760,777 L 756,774 L 753,769 L 750,768 L 751,774 L 749,780 L 746,779 L 743,776 L 735,758 L 731,752 L 731,749 L 729,747 L 728,742 L 717,743 L 717,746 L 719,748 L 719,752 L 712,779 L 707,786 L 716,785 L 722,782 L 719,781 L 718,774 L 720,772 L 729,771 L 732,774 L 732,779 L 730,780 L 730,782 L 741,782 L 753,780 L 770,781 L 776,777 L 779,778 L 779,783 L 784,783 L 786,785 L 794,787 L 796,791 L 796,788 L 798,786 L 801,787 L 800,791 L 798,792 L 800,793 L 799,796 L 791,794 L 788,790 L 779,791 L 778,794 L 763,792 L 741,792 L 716,796 L 712,798 L 708,798 L 689,803 L 676,808 L 663,811 L 650,817 L 599,834 L 568,841 L 531,845 L 489,844 L 454,839 L 425,832 L 415,828 L 388,821 L 374,815 L 335,802 L 312,796 L 297,794 L 292,792 L 258,791 L 246,794 L 242,793 L 242,791 L 237,790 L 237,788 L 233,788 L 231,790 L 228,789 L 227,785 L 229,783 L 225,784 L 224,788 L 219,787 L 220,780 L 218,779 L 218,777 L 220,775 L 223,775 L 233,780 L 242,780 L 246,778 L 249,774 L 250,767 L 246,766 L 243,773 L 236,774 L 233,773 L 230,770 L 227,763 L 228,752 L 234,744 L 239,744 L 245,750 L 245,752 L 248,752 L 247,738 L 234,739 L 228,741 L 223,745 L 218,754 L 218,769 L 220,771 L 219,774 L 213,773 Z M 431,718 L 431,720 L 426,723 L 426,725 L 424,727 L 421,726 L 422,721 L 424,719 L 426,719 L 428,717 Z M 432,719 L 433,716 L 436,715 L 442,716 L 441,719 L 436,720 Z M 561,709 L 560,712 L 548,719 L 540,726 L 536,726 L 536,720 L 534,718 L 534,712 L 552,710 L 556,708 Z M 463,707 L 488,711 L 488,715 L 486,715 L 485,719 L 483,719 L 483,725 L 480,725 L 472,717 L 463,712 Z M 507,704 L 508,701 L 520,702 L 519,705 Z M 132,698 L 135,699 L 135,702 L 138,703 L 138,706 L 140,706 L 141,704 L 144,705 L 141,711 L 138,712 L 141,714 L 141,717 L 138,724 L 136,724 L 134,722 L 133,718 L 134,714 L 131,713 L 133,704 L 131,703 Z M 563,696 L 562,699 L 560,700 L 550,701 L 544,703 L 540,702 L 541,699 L 556,697 L 560,695 Z M 453,692 L 461,695 L 489,700 L 488,703 L 465,700 L 453,696 Z M 132,686 L 131,690 L 126,693 L 123,698 L 119,697 L 119,694 L 125,688 L 127,688 L 128,685 Z M 702,685 L 702,681 L 722,683 L 721,686 L 717,687 L 710,687 L 709,685 L 706,686 Z M 700,681 L 700,684 L 698,686 L 693,685 L 692,687 L 689,686 L 690,682 L 697,680 Z M 312,677 L 315,677 L 319,679 L 323,678 L 325,680 L 324,683 L 316,684 L 313,683 L 311,680 Z M 279,672 L 290,675 L 289,678 L 282,678 L 279,676 Z M 618,672 L 617,675 L 612,678 L 609,678 L 608,680 L 603,682 L 600,685 L 594,688 L 591,688 L 590,690 L 579,694 L 576,693 L 577,690 L 587,686 L 590,686 L 593,683 L 602,680 L 603,678 L 615,671 Z M 399,666 L 402,666 L 414,675 L 417,676 L 416,679 L 414,679 L 413,677 L 405,674 L 399,670 Z M 768,665 L 767,669 L 762,671 L 761,673 L 759,673 L 758,676 L 753,676 L 745,679 L 741,679 L 742,676 L 748,674 L 750,671 L 759,669 L 760,666 L 764,666 L 765,664 Z M 159,664 L 164,665 L 164,668 L 162,669 L 161,675 L 159,678 L 156,677 L 156,670 L 158,668 Z M 252,659 L 257,660 L 257,663 L 260,664 L 260,670 L 256,669 L 251,663 Z M 644,652 L 644,654 L 638,660 L 635,659 L 635,657 L 641,651 Z M 178,649 L 178,653 L 176,655 L 174,655 L 173,658 L 169,657 L 169,655 L 171,653 L 173,653 L 174,648 Z M 368,637 L 370,637 L 382,650 L 381,653 L 379,653 L 367,640 Z M 640,637 L 639,642 L 636,642 L 635,646 L 632,645 L 631,643 L 632,640 L 634,640 L 635,637 L 637,636 Z M 863,729 L 862,744 L 857,757 L 854,762 L 848,768 L 843,768 L 841,766 L 842,753 L 834,743 L 804,729 L 801,729 L 798,727 L 779,722 L 765,720 L 733,721 L 707,725 L 654,739 L 620,751 L 607,754 L 601,757 L 598,757 L 595,759 L 577,764 L 558,768 L 539,770 L 537,768 L 539,760 L 551,746 L 566,735 L 577,730 L 584,728 L 589,728 L 591,729 L 592,732 L 591,736 L 592,738 L 596,741 L 602,741 L 606,739 L 610,733 L 610,724 L 607,719 L 599,713 L 600,710 L 613,704 L 625,701 L 635,700 L 654,702 L 662,706 L 663,712 L 662,717 L 669,722 L 674,722 L 679,720 L 682,715 L 683,699 L 697,703 L 706,703 L 715,699 L 717,699 L 719,701 L 730,701 L 735,700 L 742,696 L 747,697 L 747,700 L 754,700 L 768,691 L 783,693 L 791,683 L 793,676 L 792,669 L 789,664 L 789,661 L 787,658 L 785,650 L 786,643 L 790,635 L 790,630 L 795,627 L 805,626 L 809,623 L 813,624 L 812,632 L 814,648 L 822,670 L 831,682 L 853,699 L 858,707 L 858,710 L 860,713 Z M 355,621 L 357,621 L 360,624 L 361,628 L 367,633 L 366,636 L 364,636 L 357,629 L 357,627 L 354,624 Z M 154,721 L 156,714 L 163,700 L 169,693 L 184,682 L 191,675 L 197,667 L 197,665 L 203,656 L 206,641 L 207,619 L 216,621 L 221,624 L 225,624 L 229,628 L 232,637 L 231,650 L 224,668 L 224,674 L 227,679 L 230,681 L 233,690 L 254,689 L 268,695 L 277,695 L 278,692 L 282,692 L 286,696 L 293,699 L 302,699 L 305,697 L 308,697 L 314,700 L 326,700 L 336,695 L 339,696 L 339,698 L 336,701 L 335,712 L 340,718 L 343,719 L 351,719 L 354,717 L 353,712 L 354,707 L 361,703 L 379,700 L 392,700 L 410,703 L 427,710 L 427,714 L 418,722 L 417,726 L 418,735 L 422,739 L 432,740 L 435,737 L 437,730 L 446,730 L 455,733 L 471,745 L 474,750 L 481,757 L 485,764 L 484,768 L 472,768 L 456,764 L 446,763 L 424,757 L 418,754 L 415,754 L 412,752 L 400,749 L 397,747 L 342,730 L 305,722 L 290,720 L 247,720 L 228,723 L 208,729 L 195,735 L 192,738 L 190,738 L 178,750 L 176,763 L 170,763 L 164,761 L 158,752 L 154,736 Z M 268,602 L 271,603 L 272,605 L 272,612 L 267,611 Z M 336,585 L 339,586 L 348,607 L 354,615 L 353,618 L 350,617 L 346,608 L 340,600 L 335,588 Z M 70,582 L 71,578 L 81,579 L 80,582 L 75,583 Z M 832,577 L 835,578 L 835,581 L 837,582 L 837,584 L 835,585 L 835,588 L 832,593 L 830,593 L 828,591 L 830,581 Z M 745,575 L 751,576 L 750,581 L 744,580 Z M 101,573 L 100,576 L 98,576 L 96,578 L 91,578 L 93,574 L 97,572 Z M 507,558 L 511,559 L 510,576 L 512,600 L 510,606 L 507,605 L 505,581 L 503,573 L 504,570 L 506,570 Z M 993,556 L 993,559 L 989,562 L 986,569 L 983,568 L 983,565 L 989,555 Z M 472,547 L 473,551 L 470,554 L 465,555 L 463,561 L 452,570 L 449,569 L 449,567 L 457,560 L 457,558 L 462,551 L 464,551 L 467,547 Z M 135,546 L 138,547 L 138,554 L 136,556 L 133,555 Z M 324,544 L 327,545 L 329,556 L 333,568 L 332,571 L 329,570 L 327,565 L 326,557 L 323,549 Z M 473,540 L 480,541 L 479,544 L 477,544 L 476,547 L 472,546 Z M 546,538 L 550,539 L 567,557 L 567,559 L 573,564 L 579,573 L 584,577 L 588,584 L 591,586 L 591,590 L 588,589 L 565,565 L 565,562 L 561,561 L 560,558 L 556,555 L 554,550 L 546,544 L 545,541 Z M 862,534 L 862,538 L 860,543 L 861,555 L 855,555 L 854,559 L 858,560 L 859,562 L 856,570 L 856,577 L 854,579 L 851,579 L 852,585 L 851,590 L 848,590 L 844,603 L 842,603 L 843,608 L 847,612 L 846,615 L 843,616 L 842,621 L 839,621 L 837,618 L 835,618 L 835,627 L 833,631 L 830,630 L 831,620 L 826,620 L 827,634 L 825,636 L 826,648 L 824,652 L 821,651 L 820,646 L 821,632 L 819,624 L 821,620 L 820,617 L 824,596 L 826,596 L 827,593 L 830,594 L 826,608 L 826,616 L 829,616 L 830,611 L 829,604 L 832,602 L 833,598 L 835,598 L 835,594 L 837,590 L 839,589 L 836,588 L 837,585 L 841,585 L 839,580 L 841,578 L 843,578 L 843,575 L 845,574 L 848,565 L 851,566 L 852,569 L 852,565 L 850,564 L 849,557 L 853,551 L 853,546 L 855,545 L 858,533 Z M 700,533 L 703,534 L 701,556 L 698,562 L 698,566 L 696,570 L 695,578 L 685,600 L 681,600 L 682,595 L 688,584 L 692,573 Z M 30,532 L 33,533 L 34,537 L 33,552 L 29,551 L 28,547 L 29,543 L 28,534 Z M 688,529 L 692,530 L 692,532 L 690,533 L 691,541 L 689,543 L 686,542 L 686,533 Z M 152,529 L 158,529 L 159,537 L 162,545 L 163,541 L 166,542 L 167,546 L 169,547 L 168,550 L 163,549 L 163,551 L 169,552 L 169,554 L 173,559 L 173,563 L 171,563 L 170,561 L 166,561 L 166,564 L 171,565 L 172,569 L 176,570 L 178,583 L 180,585 L 181,592 L 184,594 L 185,590 L 188,591 L 188,596 L 191,599 L 190,602 L 186,601 L 186,608 L 187,611 L 189,612 L 188,623 L 184,622 L 184,620 L 178,621 L 177,626 L 175,627 L 170,626 L 170,624 L 173,620 L 171,619 L 172,601 L 168,600 L 168,598 L 170,596 L 168,595 L 167,583 L 165,582 L 165,579 L 163,578 L 164,572 L 162,571 L 160,567 L 160,564 L 158,563 L 159,559 L 157,558 L 155,543 L 151,542 L 151,538 L 153,536 L 153,534 L 151,533 Z M 989,526 L 992,527 L 993,529 L 993,534 L 995,535 L 994,538 L 991,537 L 991,534 L 989,533 L 988,530 Z M 488,525 L 491,526 L 490,533 L 487,536 L 484,535 L 484,533 Z M 759,519 L 762,522 L 763,527 L 778,542 L 777,546 L 751,555 L 731,567 L 724,573 L 722,578 L 719,580 L 716,587 L 717,603 L 725,617 L 727,624 L 732,632 L 732,634 L 743,649 L 743,659 L 737,664 L 722,667 L 712,666 L 704,663 L 689,663 L 679,671 L 673,679 L 672,683 L 667,684 L 662,682 L 647,681 L 630,683 L 625,682 L 626,679 L 642,668 L 661,650 L 688,614 L 701,588 L 701,585 L 708,567 L 712,546 L 712,539 L 714,533 L 722,533 L 730,527 L 740,525 L 752,520 Z M 161,517 L 164,517 L 166,519 L 167,524 L 166,527 L 159,526 L 159,522 Z M 847,517 L 851,517 L 850,524 L 845,524 L 845,521 Z M 263,516 L 270,519 L 280,521 L 293,527 L 303,534 L 314,537 L 314,544 L 316,554 L 325,586 L 346,626 L 370,655 L 396,677 L 401,679 L 403,681 L 402,684 L 392,682 L 362,682 L 353,685 L 350,684 L 350,673 L 346,666 L 340,662 L 337,662 L 331,659 L 321,659 L 319,661 L 313,661 L 308,663 L 297,663 L 285,660 L 283,658 L 279,657 L 276,654 L 274,650 L 274,645 L 277,638 L 292,620 L 294,611 L 298,605 L 302,594 L 303,577 L 287,562 L 270,554 L 266,551 L 245,544 L 247,539 L 254,532 L 255,529 L 261,522 L 261,518 Z M 305,515 L 308,515 L 312,520 L 311,523 L 307,523 L 304,519 Z M 508,505 L 514,508 L 514,511 L 511,514 L 507,513 L 506,507 Z M 316,506 L 318,504 L 321,504 L 325,506 L 324,509 L 321,510 L 317,509 Z M 719,504 L 718,507 L 712,508 L 712,510 L 710,512 L 701,511 L 702,503 L 708,504 L 715,502 Z M 305,501 L 314,502 L 313,506 L 304,504 Z M 549,506 L 550,503 L 553,504 L 554,507 L 556,507 L 556,500 L 560,500 L 567,502 L 574,502 L 610,508 L 609,511 L 577,511 L 557,513 L 550,511 Z M 481,501 L 480,504 L 467,505 L 466,510 L 459,510 L 458,508 L 456,508 L 455,511 L 452,510 L 412,510 L 413,507 L 432,505 L 438,503 L 448,503 L 465,500 Z M 60,494 L 59,497 L 54,500 L 50,500 L 52,496 L 56,495 L 57,493 Z M 710,489 L 707,495 L 703,494 L 702,497 L 698,496 L 692,491 L 693,487 L 702,486 L 705,487 L 705,489 Z M 296,486 L 303,488 L 303,494 L 296,493 L 295,490 Z M 757,486 L 756,489 L 754,489 L 752,491 L 747,491 L 748,487 L 754,485 Z M 735,488 L 734,491 L 728,490 L 725,493 L 717,491 L 717,489 L 719,487 L 723,487 L 731,484 L 734,485 Z M 72,484 L 71,487 L 64,492 L 60,491 L 61,488 L 69,483 Z M 283,480 L 289,481 L 289,485 L 284,485 L 282,483 Z M 263,480 L 267,479 L 270,480 L 270,483 L 272,484 L 272,486 L 274,486 L 275,482 L 280,482 L 284,487 L 290,489 L 291,495 L 294,495 L 299,498 L 300,500 L 299,503 L 295,503 L 290,498 L 286,497 L 282,491 L 270,489 L 267,483 L 266,487 L 263,486 L 262,483 Z M 545,476 L 544,480 L 541,483 L 534,480 L 535,477 L 540,478 L 542,475 Z M 487,475 L 490,476 L 495,481 L 496,487 L 495,490 L 493,490 L 487,484 L 486,479 Z M 247,475 L 254,476 L 253,481 L 249,482 L 246,481 Z M 777,474 L 777,477 L 775,479 L 772,479 L 771,482 L 767,481 L 768,477 L 772,477 L 773,474 Z M 699,474 L 703,471 L 707,471 L 713,477 L 711,484 L 708,483 L 708,479 L 706,477 L 699,476 Z M 268,471 L 277,474 L 279,476 L 278,479 L 273,478 L 273,476 L 267,474 Z M 759,471 L 756,477 L 753,478 L 752,481 L 749,482 L 746,481 L 747,477 L 752,476 L 752,474 L 755,471 Z M 328,459 L 331,460 L 329,468 L 326,467 Z M 317,460 L 316,467 L 314,469 L 314,471 L 307,476 L 300,479 L 295,479 L 289,476 L 288,473 L 290,471 L 298,470 L 301,465 L 305,462 L 314,459 Z M 709,458 L 720,461 L 724,465 L 725,468 L 730,472 L 734,473 L 735,476 L 730,480 L 722,481 L 710,466 L 708,461 Z M 233,458 L 235,458 L 237,460 L 238,458 L 241,458 L 244,461 L 247,462 L 255,462 L 254,466 L 252,467 L 257,469 L 259,474 L 266,476 L 265,479 L 259,478 L 258,476 L 256,476 L 251,472 L 250,474 L 246,473 L 246,469 L 242,469 L 241,474 L 236,473 L 235,466 L 232,464 Z M 806,457 L 805,460 L 801,460 L 800,462 L 797,461 L 798,457 L 802,456 Z M 694,455 L 697,456 L 699,464 L 698,467 L 695,466 L 693,458 Z M 568,454 L 568,456 L 561,462 L 560,465 L 552,473 L 549,474 L 548,476 L 544,475 L 544,473 L 559,460 L 560,457 L 565,453 Z M 215,446 L 219,447 L 219,449 L 225,450 L 224,454 L 234,452 L 234,455 L 229,458 L 231,459 L 230,463 L 226,462 L 226,460 L 223,460 L 217,456 L 216,450 L 214,449 Z M 97,445 L 100,446 L 98,454 L 95,453 L 95,449 Z M 448,441 L 450,441 L 465,455 L 467,455 L 474,463 L 485,471 L 484,474 L 481,474 L 480,477 L 478,477 L 473,473 L 461,460 L 458,455 L 447,445 Z M 689,440 L 692,441 L 694,445 L 693,449 L 690,448 L 688,443 Z M 327,437 L 327,439 L 325,440 L 325,443 L 323,444 L 323,448 L 321,452 L 317,452 L 317,449 L 321,444 L 321,441 L 324,436 Z M 777,432 L 780,433 L 780,436 L 783,437 L 784,441 L 782,442 L 783,450 L 780,449 L 778,443 L 779,440 L 777,436 Z M 698,432 L 700,432 L 702,434 L 702,436 L 707,444 L 706,450 L 703,449 L 703,447 L 697,436 Z M 515,428 L 518,429 L 521,458 L 519,459 L 519,463 L 522,464 L 522,481 L 521,485 L 519,487 L 516,486 L 513,468 L 513,439 Z M 758,422 L 758,424 L 755,428 L 751,427 L 751,425 L 754,422 Z M 212,403 L 217,406 L 224,407 L 226,409 L 226,411 L 229,412 L 230,414 L 229,418 L 226,418 L 225,416 L 222,416 L 215,411 L 213,411 L 211,409 Z M 312,402 L 317,403 L 316,409 L 313,410 L 308,409 Z M 678,397 L 680,397 L 685,402 L 684,407 L 682,407 L 677,400 Z M 788,395 L 787,398 L 783,401 L 780,400 L 780,398 L 784,394 Z M 64,395 L 64,398 L 61,402 L 56,402 L 59,395 L 61,394 Z M 772,393 L 770,397 L 765,397 L 765,395 L 768,391 L 770,391 Z M 220,391 L 227,390 L 235,395 L 240,400 L 239,403 L 237,403 L 231,397 L 229,397 L 227,395 L 225,395 L 225,398 L 228,399 L 227,402 L 223,401 L 223,399 L 217,397 Z M 696,388 L 698,387 L 702,388 L 705,394 L 707,395 L 707,400 L 709,400 L 714,404 L 715,409 L 717,412 L 716,415 L 710,413 L 708,408 L 703,403 L 701,399 L 701,396 L 698,396 L 695,392 Z M 85,384 L 88,384 L 91,387 L 91,391 L 85,388 Z M 396,381 L 394,386 L 389,386 L 390,381 L 393,380 Z M 849,379 L 852,380 L 853,384 L 852,387 L 850,387 L 847,383 L 847,381 Z M 231,383 L 234,376 L 241,376 L 246,380 L 246,382 L 244,384 L 239,383 L 238,385 L 235,385 Z M 182,376 L 185,377 L 186,379 L 186,386 L 184,392 L 180,392 L 180,381 Z M 943,375 L 948,375 L 962,381 L 961,384 L 955,384 L 955,386 L 961,386 L 963,388 L 962,391 L 951,390 L 949,392 L 945,393 L 941,392 L 941,390 L 944,387 L 947,386 L 951,387 L 951,382 L 948,380 L 942,379 Z M 77,375 L 76,378 L 71,380 L 62,379 L 63,376 L 73,374 Z M 332,370 L 332,376 L 336,377 L 335,380 L 333,380 L 332,387 L 328,386 L 328,381 L 324,382 L 319,392 L 314,394 L 312,401 L 305,403 L 304,406 L 301,405 L 301,403 L 303,402 L 303,399 L 308,395 L 309,392 L 311,392 L 312,388 L 319,381 L 320,378 L 323,377 L 323,373 L 328,369 Z M 977,368 L 980,369 L 982,374 L 982,382 L 980,384 L 977,383 L 978,375 L 976,371 Z M 52,360 L 51,364 L 48,365 L 48,368 L 46,370 L 42,369 L 41,365 L 49,359 Z M 367,355 L 370,356 L 370,359 L 372,360 L 371,363 L 369,364 L 364,363 L 364,359 L 366,359 Z M 651,353 L 653,352 L 660,353 L 659,362 L 651,357 Z M 412,349 L 411,352 L 406,354 L 403,357 L 400,356 L 401,353 L 405,352 L 406,350 Z M 199,348 L 202,349 L 203,352 L 205,353 L 205,358 L 202,357 L 198,352 Z M 756,346 L 763,348 L 763,350 L 761,352 L 757,351 Z M 674,346 L 684,349 L 684,357 L 681,365 L 682,369 L 681,372 L 678,371 L 678,369 L 675,368 L 676,365 L 678,364 L 672,360 L 673,356 L 675,356 L 677,358 L 677,355 L 675,351 L 672,350 L 672,348 Z M 777,345 L 776,348 L 770,350 L 764,349 L 765,346 L 772,344 Z M 248,349 L 248,344 L 265,346 L 264,350 L 256,352 L 254,350 Z M 337,342 L 340,343 L 340,346 L 342,349 L 342,357 L 344,357 L 344,351 L 346,349 L 351,349 L 353,351 L 351,359 L 351,366 L 346,366 L 345,368 L 343,368 L 341,370 L 340,373 L 336,373 L 336,370 L 333,369 L 332,367 L 332,354 L 333,350 L 335,349 L 334,345 Z M 424,342 L 423,345 L 416,349 L 412,348 L 413,345 L 421,341 Z M 959,340 L 963,341 L 961,353 L 958,352 Z M 372,341 L 371,346 L 364,348 L 363,350 L 360,351 L 357,350 L 358,346 L 364,344 L 365,340 Z M 494,340 L 520,339 L 529,341 L 529,343 L 532,343 L 533,341 L 537,341 L 550,344 L 553,347 L 562,347 L 565,349 L 571,350 L 573,352 L 575,352 L 576,354 L 584,355 L 586,357 L 586,359 L 590,360 L 591,363 L 592,361 L 596,362 L 611,371 L 618,378 L 621,379 L 626,385 L 632,389 L 632,394 L 628,395 L 623,401 L 618,400 L 618,398 L 616,398 L 608,391 L 594,382 L 574,373 L 568,369 L 556,365 L 548,364 L 545,360 L 544,363 L 534,361 L 531,362 L 550,365 L 569,371 L 573,374 L 575,374 L 592,383 L 595,386 L 601,388 L 618,402 L 618,405 L 615,408 L 611,408 L 605,402 L 602,402 L 604,403 L 604,408 L 610,409 L 610,411 L 599,419 L 597,422 L 591,426 L 584,433 L 580,435 L 576,440 L 573,442 L 570,442 L 569,446 L 562,450 L 560,453 L 556,452 L 556,449 L 560,446 L 555,447 L 550,452 L 547,452 L 543,450 L 544,444 L 549,441 L 547,440 L 547,438 L 551,430 L 550,427 L 542,441 L 539,441 L 538,449 L 535,452 L 531,451 L 533,445 L 532,438 L 530,438 L 529,444 L 526,445 L 524,443 L 524,441 L 521,440 L 515,380 L 512,380 L 512,388 L 506,413 L 504,433 L 502,441 L 498,441 L 497,443 L 492,443 L 491,448 L 489,448 L 478,433 L 476,428 L 473,426 L 477,439 L 480,443 L 479,449 L 474,450 L 468,449 L 467,447 L 461,448 L 455,442 L 444,435 L 435,426 L 432,425 L 417,411 L 417,409 L 428,399 L 431,400 L 434,405 L 437,405 L 432,400 L 433,395 L 435,395 L 444,388 L 447,389 L 452,397 L 451,393 L 448,389 L 449,385 L 460,380 L 464,381 L 468,390 L 466,382 L 467,378 L 476,375 L 481,375 L 483,377 L 485,388 L 484,377 L 485,374 L 497,373 L 495,371 L 485,373 L 477,373 L 463,377 L 450,383 L 431,394 L 430,396 L 421,402 L 417,407 L 412,406 L 409,404 L 410,400 L 413,399 L 419,393 L 426,389 L 427,387 L 429,387 L 433,383 L 444,378 L 449,374 L 466,368 L 496,362 L 478,364 L 454,370 L 435,380 L 432,383 L 418,391 L 413,396 L 407,396 L 405,394 L 404,396 L 397,395 L 398,399 L 403,403 L 403,406 L 391,418 L 390,421 L 385,426 L 375,443 L 370,457 L 366,459 L 368,460 L 368,462 L 366,465 L 362,478 L 360,494 L 362,494 L 362,485 L 367,466 L 378,441 L 380,439 L 383,439 L 382,435 L 389,426 L 392,420 L 404,407 L 407,407 L 411,412 L 410,415 L 402,421 L 391,434 L 391,436 L 384,447 L 383,452 L 387,451 L 399,457 L 399,455 L 386,449 L 386,447 L 394,435 L 400,435 L 404,439 L 407,438 L 399,433 L 398,429 L 408,419 L 411,420 L 413,423 L 412,420 L 413,417 L 415,417 L 426,431 L 429,433 L 437,445 L 441,448 L 442,451 L 447,455 L 456,466 L 455,469 L 447,468 L 448,473 L 454,478 L 453,481 L 451,481 L 443,476 L 437,474 L 435,471 L 432,471 L 430,469 L 426,468 L 434,476 L 436,476 L 447,484 L 447,488 L 444,491 L 437,493 L 439,494 L 440,497 L 444,498 L 443,501 L 433,502 L 428,504 L 416,504 L 411,506 L 403,506 L 386,509 L 386,512 L 413,515 L 417,517 L 432,519 L 445,523 L 451,523 L 450,526 L 438,528 L 438,530 L 448,530 L 452,532 L 451,535 L 445,538 L 433,547 L 430,547 L 428,549 L 428,551 L 432,551 L 436,549 L 439,549 L 442,551 L 443,547 L 446,548 L 446,552 L 450,554 L 451,560 L 435,579 L 424,595 L 421,596 L 421,598 L 411,610 L 408,610 L 404,607 L 404,605 L 407,601 L 411,598 L 406,599 L 404,602 L 400,602 L 398,600 L 397,597 L 394,594 L 394,592 L 402,585 L 398,586 L 395,589 L 390,588 L 389,581 L 385,578 L 386,573 L 391,571 L 386,572 L 382,571 L 380,564 L 377,559 L 378,556 L 387,555 L 387,553 L 382,555 L 376,554 L 374,548 L 375,542 L 382,541 L 385,538 L 381,538 L 380,540 L 372,539 L 372,535 L 370,533 L 373,551 L 382,576 L 384,578 L 391,594 L 397,601 L 398,604 L 407,612 L 407,615 L 404,618 L 401,618 L 394,611 L 384,597 L 376,583 L 367,561 L 361,533 L 362,546 L 369,571 L 382,595 L 382,597 L 392,610 L 393,614 L 396,615 L 399,619 L 399,622 L 393,627 L 393,629 L 397,628 L 401,623 L 404,623 L 412,631 L 441,650 L 466,660 L 486,665 L 491,665 L 493,663 L 478,662 L 461,657 L 442,649 L 414,630 L 406,622 L 406,620 L 411,615 L 414,616 L 414,618 L 421,626 L 438,637 L 442,638 L 454,645 L 482,654 L 489,654 L 490,655 L 493,654 L 485,652 L 484,642 L 482,650 L 477,651 L 471,648 L 456,644 L 450,641 L 449,637 L 445,638 L 439,634 L 435,633 L 430,629 L 431,625 L 434,623 L 435,620 L 433,620 L 430,625 L 425,626 L 417,619 L 418,615 L 415,614 L 415,612 L 438,593 L 442,591 L 447,585 L 465,571 L 469,571 L 470,573 L 477,572 L 479,569 L 483,569 L 482,576 L 473,596 L 478,592 L 488,574 L 492,574 L 492,579 L 491,580 L 492,582 L 493,579 L 495,578 L 496,574 L 499,571 L 502,572 L 503,577 L 504,600 L 509,624 L 510,636 L 513,636 L 517,616 L 518,603 L 524,578 L 526,578 L 527,580 L 530,580 L 532,582 L 534,579 L 535,574 L 538,575 L 539,580 L 541,582 L 548,598 L 551,600 L 550,594 L 548,591 L 548,588 L 546,585 L 542,572 L 543,567 L 547,567 L 551,572 L 557,569 L 567,578 L 570,579 L 582,588 L 609,615 L 611,615 L 618,622 L 618,625 L 605,636 L 598,639 L 592,644 L 590,644 L 583,649 L 574,653 L 550,660 L 540,662 L 532,662 L 529,664 L 552,661 L 578,653 L 601,639 L 603,639 L 605,637 L 608,637 L 609,634 L 620,625 L 624,626 L 627,629 L 627,631 L 632,632 L 634,629 L 628,627 L 627,618 L 632,612 L 635,611 L 637,612 L 635,611 L 635,609 L 639,605 L 640,601 L 642,600 L 652,581 L 662,552 L 664,541 L 663,535 L 663,540 L 659,556 L 656,563 L 653,564 L 654,571 L 649,584 L 646,588 L 645,592 L 634,608 L 628,615 L 624,616 L 621,615 L 621,613 L 618,612 L 619,609 L 622,609 L 623,606 L 626,604 L 629,598 L 635,591 L 644,577 L 644,574 L 653,552 L 656,537 L 653,537 L 652,540 L 642,541 L 648,541 L 652,543 L 652,548 L 649,556 L 642,557 L 634,555 L 634,557 L 644,558 L 648,560 L 645,569 L 642,573 L 638,573 L 634,571 L 628,572 L 632,572 L 634,574 L 636,574 L 639,576 L 640,580 L 637,586 L 633,590 L 631,590 L 626,586 L 622,585 L 622,587 L 627,589 L 630,592 L 630,594 L 626,598 L 625,601 L 621,602 L 615,597 L 613,597 L 614,600 L 619,603 L 619,608 L 613,608 L 611,606 L 611,603 L 609,603 L 601,595 L 599,591 L 585,577 L 573,561 L 573,557 L 578,557 L 578,554 L 575,553 L 577,548 L 583,547 L 588,550 L 595,552 L 600,552 L 568,533 L 569,530 L 583,531 L 581,530 L 581,527 L 576,526 L 577,523 L 592,522 L 603,519 L 644,514 L 643,512 L 636,510 L 607,505 L 597,505 L 590,503 L 583,503 L 576,501 L 577,497 L 583,495 L 583,490 L 576,489 L 577,486 L 586,481 L 594,475 L 597,471 L 595,471 L 594,473 L 589,475 L 582,476 L 581,479 L 579,479 L 576,476 L 576,474 L 578,472 L 575,473 L 572,472 L 572,468 L 574,466 L 574,463 L 604,428 L 612,420 L 615,420 L 616,418 L 619,419 L 619,421 L 615,427 L 616,429 L 620,423 L 622,423 L 630,432 L 629,437 L 627,437 L 619,442 L 622,442 L 630,437 L 633,437 L 641,449 L 640,452 L 631,457 L 634,457 L 640,453 L 643,454 L 645,457 L 647,463 L 646,468 L 644,468 L 637,473 L 640,473 L 645,470 L 649,471 L 651,478 L 650,482 L 647,483 L 646,486 L 643,487 L 642,489 L 652,487 L 655,490 L 651,470 L 645,453 L 639,443 L 639,441 L 631,430 L 625,424 L 623,420 L 621,419 L 621,416 L 618,415 L 618,413 L 621,409 L 625,409 L 643,433 L 643,435 L 655,458 L 659,474 L 662,481 L 662,488 L 663,489 L 662,496 L 650,496 L 650,499 L 653,501 L 653,524 L 650,527 L 650,530 L 660,529 L 673,530 L 675,518 L 673,518 L 672,522 L 667,526 L 662,526 L 660,524 L 661,514 L 666,515 L 666,517 L 669,517 L 668,506 L 666,506 L 666,508 L 664,510 L 660,509 L 661,499 L 669,500 L 670,504 L 674,506 L 674,500 L 673,496 L 664,495 L 663,479 L 651,445 L 638,423 L 625,407 L 625,404 L 631,396 L 640,397 L 643,399 L 645,402 L 645,407 L 650,408 L 653,411 L 659,422 L 666,432 L 665,436 L 668,437 L 670,441 L 670,445 L 673,448 L 677,459 L 676,462 L 674,463 L 679,464 L 685,494 L 685,508 L 686,509 L 685,523 L 683,523 L 683,527 L 685,528 L 685,536 L 681,557 L 676,560 L 679,561 L 679,563 L 669,588 L 665,594 L 662,594 L 663,598 L 657,609 L 653,609 L 653,615 L 651,615 L 651,618 L 649,619 L 643,627 L 634,634 L 634,636 L 632,638 L 629,638 L 628,642 L 626,644 L 623,645 L 609,657 L 606,658 L 605,660 L 603,660 L 592,668 L 570,677 L 553,682 L 541,684 L 509,685 L 508,683 L 504,683 L 503,685 L 496,685 L 475,682 L 440,670 L 423,661 L 420,658 L 411,653 L 404,646 L 399,644 L 386,632 L 364,602 L 362,597 L 358,592 L 354,580 L 352,578 L 343,548 L 344,542 L 346,542 L 346,540 L 342,539 L 340,521 L 341,493 L 343,490 L 344,484 L 346,484 L 346,482 L 344,481 L 344,476 L 347,465 L 349,462 L 349,459 L 353,449 L 359,439 L 361,432 L 377,407 L 386,399 L 387,396 L 390,394 L 396,386 L 400,385 L 401,381 L 406,380 L 406,377 L 408,375 L 412,375 L 413,372 L 418,373 L 418,369 L 424,364 L 426,364 L 433,359 L 435,359 L 448,352 L 456,350 L 458,352 L 459,348 L 477,343 Z M 593,337 L 595,337 L 600,341 L 603,341 L 612,347 L 611,350 L 609,350 L 600,343 L 597,343 L 593,341 Z M 965,335 L 970,336 L 970,339 L 968,343 L 966,343 L 963,340 L 963,337 Z M 677,334 L 679,334 L 682,337 L 683,342 L 682,345 L 679,344 L 676,340 Z M 979,331 L 979,333 L 977,335 L 974,336 L 971,335 L 972,332 L 975,330 Z M 574,329 L 579,330 L 580,332 L 584,332 L 588,334 L 587,337 L 581,336 L 580,334 L 577,334 L 573,332 Z M 866,328 L 869,329 L 869,331 L 871,333 L 870,337 L 868,337 L 866,335 L 865,331 Z M 178,328 L 183,329 L 184,337 L 183,340 L 180,340 L 178,338 L 177,334 Z M 663,327 L 670,327 L 674,329 L 674,333 L 672,337 L 669,336 L 669,333 L 664,333 L 662,331 Z M 809,325 L 814,326 L 813,338 L 810,337 Z M 357,326 L 358,328 L 357,332 L 353,332 L 349,335 L 348,338 L 344,337 L 344,334 L 347,332 L 349,327 L 353,325 Z M 875,324 L 878,325 L 880,329 L 879,332 L 877,332 L 875,330 L 874,327 Z M 823,324 L 822,328 L 820,328 L 819,332 L 817,332 L 815,330 L 816,326 L 819,326 L 820,323 Z M 552,323 L 565,326 L 564,329 L 551,326 Z M 476,324 L 475,327 L 459,331 L 456,330 L 457,327 L 464,326 L 473,323 Z M 52,323 L 56,324 L 54,332 L 51,331 Z M 477,325 L 478,322 L 503,319 L 507,320 L 529,319 L 544,321 L 550,323 L 549,326 L 522,323 L 492,324 L 482,326 Z M 157,316 L 161,317 L 161,324 L 163,326 L 163,330 L 158,329 L 158,325 L 156,322 Z M 748,309 L 751,310 L 751,313 L 754,314 L 754,316 L 759,314 L 763,315 L 760,326 L 753,327 L 752,332 L 749,331 L 746,325 L 744,324 L 745,320 L 748,320 L 749,316 L 743,315 L 743,313 Z M 754,308 L 761,309 L 762,311 L 768,311 L 767,314 L 763,315 L 762,313 L 754,312 Z M 386,308 L 386,310 L 383,314 L 379,317 L 376,316 L 376,314 L 383,307 Z M 759,301 L 764,302 L 763,307 L 756,307 Z M 802,302 L 801,308 L 799,310 L 797,310 L 790,306 L 789,308 L 786,307 L 786,305 L 776,305 L 775,308 L 772,307 L 771,305 L 771,301 L 777,301 L 777,300 L 780,299 L 782,301 L 785,301 L 786,303 L 790,303 L 791,299 L 794,297 L 798,298 Z M 276,298 L 276,302 L 278,304 L 277,307 L 275,307 L 274,312 L 278,313 L 279,311 L 283,312 L 282,316 L 274,319 L 271,318 L 272,312 L 266,313 L 261,323 L 252,321 L 253,316 L 255,316 L 259,312 L 260,304 L 267,305 L 267,302 L 270,297 Z M 222,305 L 224,300 L 228,299 L 230,301 L 231,296 L 245,301 L 250,301 L 252,303 L 251,306 L 245,306 L 243,308 L 234,307 L 234,305 L 236,303 L 234,303 L 233,305 L 230,305 L 231,308 L 235,309 L 235,312 L 233,316 L 230,315 L 230,313 L 224,312 Z M 383,328 L 387,323 L 409,303 L 423,295 L 432,294 L 440,296 L 447,301 L 459,304 L 469,304 L 476,302 L 483,297 L 488,297 L 491,300 L 498,301 L 511,309 L 520,309 L 524,307 L 528,302 L 535,300 L 538,297 L 545,298 L 560,305 L 570,305 L 591,297 L 598,297 L 609,301 L 618,307 L 621,311 L 626,314 L 630,319 L 642,329 L 642,332 L 638,337 L 638,344 L 640,346 L 640,350 L 633,351 L 622,343 L 615,340 L 608,335 L 578,323 L 555,317 L 537,314 L 498,313 L 475,316 L 435,327 L 418,335 L 399,346 L 393,351 L 389,351 L 388,346 L 389,336 L 383,330 Z M 881,292 L 885,293 L 890,298 L 890,301 L 892,304 L 891,307 L 888,306 L 886,301 L 880,296 Z M 798,293 L 801,292 L 804,293 L 804,298 L 807,299 L 806,302 L 802,301 L 802,298 L 797,296 Z M 224,291 L 227,292 L 227,295 L 225,299 L 221,298 L 220,295 Z M 767,290 L 766,293 L 752,298 L 752,303 L 749,303 L 747,308 L 744,307 L 743,300 L 746,297 L 756,291 L 762,289 Z M 409,286 L 408,289 L 405,290 L 404,293 L 401,295 L 397,295 L 397,292 L 404,285 Z M 260,284 L 274,290 L 273,294 L 262,290 L 262,288 L 259,287 Z M 777,284 L 778,279 L 782,278 L 783,275 L 791,276 L 795,278 L 796,280 L 795,283 L 793,284 L 790,284 L 788,282 L 785,282 L 784,284 L 780,285 Z M 227,273 L 226,276 L 222,276 L 222,278 L 218,282 L 220,283 L 219,287 L 222,288 L 222,290 L 219,292 L 218,295 L 212,294 L 212,292 L 215,289 L 213,289 L 212,287 L 209,287 L 208,290 L 203,289 L 204,284 L 215,280 L 216,274 Z M 201,273 L 203,271 L 205,271 L 206,273 L 212,274 L 211,277 L 209,278 L 202,277 Z M 249,275 L 248,279 L 242,278 L 241,281 L 238,280 L 238,278 L 240,276 L 233,277 L 229,276 L 230,273 L 234,273 L 236,271 L 241,270 L 248,272 Z M 171,269 L 174,270 L 174,272 L 170,277 L 169,284 L 166,283 L 165,277 L 167,272 Z M 179,264 L 188,264 L 195,271 L 200,273 L 200,276 L 198,278 L 193,277 L 191,271 L 189,269 L 178,268 Z M 849,265 L 848,269 L 841,270 L 838,273 L 833,275 L 830,274 L 830,272 L 835,267 L 839,267 L 845,263 L 847,263 Z M 824,257 L 821,265 L 820,272 L 814,274 L 816,275 L 815,278 L 813,278 L 816,283 L 818,284 L 816,292 L 813,291 L 814,285 L 812,285 L 811,287 L 808,286 L 808,279 L 810,273 L 812,273 L 811,269 L 812,266 L 817,268 L 817,262 L 819,258 Z M 219,256 L 221,258 L 220,263 L 217,263 L 216,266 L 214,267 L 216,268 L 215,271 L 208,270 L 209,264 L 211,263 L 212,258 Z M 430,253 L 430,256 L 427,259 L 425,264 L 421,267 L 419,267 L 418,273 L 416,273 L 415,276 L 413,278 L 411,278 L 410,283 L 407,282 L 407,279 L 409,278 L 409,275 L 415,266 L 417,266 L 417,263 L 420,260 L 423,259 L 424,254 L 427,252 Z M 564,248 L 566,248 L 568,250 L 571,259 L 575,263 L 574,268 L 570,269 L 567,272 L 566,275 L 568,282 L 570,284 L 575,285 L 574,291 L 568,296 L 562,296 L 557,293 L 552,288 L 550,283 L 550,274 L 555,263 L 560,261 L 564,261 L 566,259 L 566,256 L 563,252 Z M 462,246 L 466,247 L 465,256 L 467,258 L 473,259 L 476,262 L 480,273 L 480,280 L 476,288 L 472,292 L 468,293 L 460,293 L 456,289 L 456,284 L 459,281 L 462,280 L 462,275 L 459,271 L 449,265 L 449,263 L 454,255 Z M 683,245 L 686,246 L 687,251 L 686,256 L 682,256 Z M 441,242 L 441,244 L 433,253 L 429,252 L 430,248 L 438,241 Z M 344,238 L 348,238 L 346,249 L 342,248 Z M 534,238 L 533,247 L 531,249 L 529,249 L 527,247 L 527,250 L 525,253 L 521,253 L 524,237 L 528,236 Z M 519,234 L 523,235 L 520,250 L 517,249 L 517,241 Z M 498,222 L 501,223 L 504,229 L 503,236 L 505,236 L 506,234 L 509,235 L 509,238 L 506,241 L 507,248 L 506,253 L 504,253 L 502,251 L 500,241 L 498,238 L 497,242 L 494,241 L 493,236 L 494,227 L 497,228 L 497,231 L 499,233 L 497,225 Z M 655,221 L 662,223 L 672,233 L 675,239 L 673,250 L 670,249 L 670,242 L 668,241 L 668,238 L 666,234 L 659,227 L 655,226 Z M 640,224 L 640,220 L 650,221 L 649,224 L 646,225 Z M 520,217 L 523,218 L 521,231 L 518,230 L 517,224 Z M 607,208 L 608,205 L 616,204 L 615,208 L 612,209 Z M 400,193 L 402,193 L 409,198 L 408,201 L 399,197 Z M 637,195 L 636,198 L 626,198 L 624,205 L 619,204 L 619,202 L 621,201 L 622,196 L 626,196 L 630,191 L 634,191 L 634,194 Z M 556,173 L 559,170 L 563,170 L 566,173 L 566,176 L 565,178 L 559,179 L 556,176 Z M 465,168 L 474,171 L 474,175 L 471,178 L 466,178 L 464,176 L 463,170 Z M 528,168 L 538,167 L 541,171 L 540,176 L 537,178 L 531,178 L 527,173 Z M 488,170 L 490,167 L 498,166 L 503,168 L 502,173 L 498,177 L 492,177 L 489,175 Z M 649,139 L 652,140 L 652,145 L 655,156 L 654,159 L 651,158 L 648,148 Z M 360,130 L 363,131 L 364,135 L 368,136 L 367,143 L 363,151 L 357,152 L 357,139 L 358,132 Z M 665,123 L 668,124 L 668,127 L 671,129 L 672,138 L 669,150 L 666,150 L 665,152 L 662,151 L 662,149 L 664,148 L 664,145 L 666,144 L 665,135 L 667,133 L 666,128 L 662,127 L 663,124 Z M 382,122 L 385,123 L 386,126 L 382,137 L 379,136 L 380,126 Z M 403,119 L 405,119 L 406,121 L 411,122 L 410,125 L 406,125 L 405,128 L 402,127 Z M 647,107 L 650,108 L 648,118 L 645,117 Z M 711,94 L 711,96 L 708,99 L 702,99 L 703,96 L 706,96 L 707,93 Z M 366,91 L 369,92 L 371,95 L 372,100 L 376,106 L 380,108 L 380,121 L 379,123 L 375,123 L 375,113 L 373,108 L 366,100 L 365,94 Z M 315,76 L 318,77 L 317,87 L 314,86 Z M 278,71 L 286,76 L 285,80 L 281,80 L 277,78 Z M 307,71 L 311,71 L 309,94 L 306,93 L 304,85 L 304,78 Z M 354,63 L 365,70 L 369,74 L 370,77 L 372,78 L 374,83 L 373,86 L 366,85 L 362,81 L 356,82 L 357,89 L 360,90 L 363,93 L 362,106 L 354,106 L 348,109 L 344,108 L 344,106 L 348,103 L 350,98 L 350,87 L 347,82 L 336,81 L 334,82 L 332,88 L 329,88 L 327,86 L 327,81 L 331,73 L 336,68 Z M 696,60 L 699,60 L 710,67 L 715,79 L 715,86 L 713,92 L 711,92 L 709,90 L 709,75 L 707,71 L 702,66 L 697,65 L 695,63 Z"/>
</svg>